<svg role="img" viewBox="0 0 246 246" xmlns="http://www.w3.org/2000/svg" id="Perplexity--Streamline-Simple-Icons" height="246" width="246">
  <desc>
    Perplexity Streamline Icon: https://streamlinehq.com
  </desc>
  <title>Perplexity</title>
  <path d="M229.576425 72.6684h-23.68365V0.6929l-76.97135 65.13055V1.616425h-11.84285v63.51515L46.0266 0v72.6684H16.423575v106.5754h29.604049999999997V246l71.053 -65.180775v63.555125h11.84285v-61.980725l71.05095 63.352174999999995v-66.500975h29.604049999999997V72.6684zm-35.523425 -46.44275v46.44275h-54.88875l54.88875 -46.44275zm-136.18355 0.6929 49.908275 45.74985H57.86945V26.91855zM28.2654 167.40300000000002V84.51124999999999h80.4379l-62.677724999999995 62.675675v20.216075H28.2654zm29.604049999999997 51.6641v-39.8233h0.001025v-27.1502l59.207075 -59.208099999999995v71.863775l-59.208099999999995 54.317825zm130.26315 0.2542 -59.21015 -52.796725V92.88345l59.21015 59.21015v67.2277zm29.604049999999997 -51.9183h-17.76325v-20.216075L137.2967 84.51124999999999h80.43995000000001v82.89175z" fill="#000000" stroke-width="10.25"></path>
</svg>